# xmcd
#
# Track frame offsets: 
#        150
#        15532
#        30950
#        43740
#        56510
#        69305
#        82945
#        94795
#        111442
#        123307
#        135900
#        148472
#        167130
#        179900
#        193912
#        206132
#        219034
#        237527
#        262292
#        279425
#        293862
#        307352
#
# Disc length: 4336 seconds
#
# Revision: 1
# Processed by: cddbd v1.4PL0 Copyright (c) Steve Scherf et al.
# Submitted via: ExactAudioCopy v0.90b4
#
DISCID=5810ee16
DTITLE=Swamp Dogg - Excellent Sides Of Swamp Dogg Volume 1
DYEAR=1996
DGENRE=Soul
TTITLE0=Total Destruction To Your Mind
TTITLE1=Synthetic World
TTITLE2=Dust Your Head Color Red
TTITLE3=Redneck
TTITLE4=If I Die Tomorrow (I've Lived Tonite)
TTITLE5=I Was Born Blue
TTITLE6=Sal~A~Faster
TTITLE7=The World Beyond
TTITLE8=These Are Not My People
TTITLE9=Everything You'll Ever Need
TTITLE10=The Baby Is Mine
TTITLE11=Mama's Baby, Daddy's Maybe
TTITLE12=Do You Believe
TTITLE13=Predicament #2
TTITLE14=Remember I Said Tomorrow
TTITLE15=Creeping Away
TTITLE16=Got To Get A Message To You
TTITLE17=God Bless America For What
TTITLE18=I Kissed Your Face
TTITLE19=That Ain't My Wife
TTITLE20=She Even Woke Me Up To Say Goodbye
TTITLE21=Do Your Thing Together
EXTD=
EXTT0=
EXTT1=
EXTT2=
EXTT3=
EXTT4=
EXTT5=
EXTT6=
EXTT7=
EXTT8=
EXTT9=
EXTT10=
EXTT11=
EXTT12=
EXTT13=
EXTT14=
EXTT15=
EXTT16=
EXTT17=
EXTT18=
EXTT19=
EXTT20=
EXTT21=
PLAYORDER=
